<svg width="24" height="24" viewBox="0 0 24 24" fill="none" xmlns="http://www.w3.org/2000/svg">
<path d="M0.821651 0.821407C1.47253 0.170533 2.5278 0.170533 3.17867 0.821407L12.0002 9.6429L20.8217 0.821407C21.4725 0.170533 22.5278 0.170533 23.1787 0.821407C23.8295 1.47228 23.8295 2.52756 23.1787 3.17843L14.3572 11.9999L23.1787 20.8214C23.8295 21.4723 23.8295 22.5276 23.1787 23.1784C22.5278 23.8293 21.4725 23.8293 20.8217 23.1784L12.0002 14.3569L3.17867 23.1784C2.5278 23.8293 1.47253 23.8293 0.821651 23.1784C0.170778 22.5276 0.170778 21.4723 0.821651 20.8214L9.64314 11.9999L0.821651 3.17843C0.170778 2.52756 0.170778 1.47228 0.821651 0.821407Z" fill="#1A120B"/>
</svg>
