<svg width="148" height="22" viewBox="0 0 148 22" fill="none" xmlns="http://www.w3.org/2000/svg">
<path d="M13.12 21L7.016 11.564L10.684 9.352L18.272 21H13.12ZM0.38 21V1.4H4.888V21H0.38ZM3.572 13.104V9.324H10.404V13.104H3.572ZM11.104 11.704L6.932 11.2L13.288 1.4H18.076L11.104 11.704ZM29.6949 21.336C28.1456 21.336 26.7082 21.084 25.3829 20.58C24.0762 20.076 22.9376 19.3667 21.9669 18.452C21.0149 17.5373 20.2682 16.464 19.7269 15.232C19.2042 14 18.9429 12.656 18.9429 11.2C18.9429 9.744 19.2042 8.4 19.7269 7.168C20.2682 5.936 21.0242 4.86267 21.9949 3.948C22.9656 3.03333 24.1042 2.324 25.4109 1.82C26.7176 1.316 28.1362 1.064 29.6669 1.064C31.2162 1.064 32.6349 1.316 33.9229 1.82C35.2296 2.324 36.3589 3.03333 37.3109 3.948C38.2816 4.86267 39.0376 5.936 39.5789 7.168C40.1202 8.38133 40.3909 9.72533 40.3909 11.2C40.3909 12.656 40.1202 14.0093 39.5789 15.26C39.0376 16.492 38.2816 17.5653 37.3109 18.48C36.3589 19.376 35.2296 20.076 33.9229 20.58C32.6349 21.084 31.2256 21.336 29.6949 21.336ZM29.6669 17.472C30.5442 17.472 31.3469 17.3227 32.0749 17.024C32.8216 16.7253 33.4749 16.296 34.0349 15.736C34.5949 15.176 35.0242 14.5133 35.3229 13.748C35.6402 12.9827 35.7989 12.1333 35.7989 11.2C35.7989 10.2667 35.6402 9.41733 35.3229 8.652C35.0242 7.88667 34.5949 7.224 34.0349 6.664C33.4936 6.104 32.8496 5.67467 32.1029 5.376C31.3562 5.07733 30.5442 4.928 29.6669 4.928C28.7896 4.928 27.9776 5.07733 27.2309 5.376C26.5029 5.67467 25.8589 6.104 25.2989 6.664C24.7389 7.224 24.3002 7.88667 23.9829 8.652C23.6842 9.41733 23.5349 10.2667 23.5349 11.2C23.5349 12.1147 23.6842 12.964 23.9829 13.748C24.3002 14.5133 24.7296 15.176 25.2709 15.736C25.8309 16.296 26.4842 16.7253 27.2309 17.024C27.9776 17.3227 28.7896 17.472 29.6669 17.472ZM43.8852 21V1.4H52.3692C54.1239 1.4 55.6359 1.68933 56.9052 2.268C58.1746 2.828 59.1546 3.64 59.8452 4.704C60.5359 5.768 60.8812 7.03733 60.8812 8.512C60.8812 9.968 60.5359 11.228 59.8452 12.292C59.1546 13.356 58.1746 14.1773 56.9052 14.756C55.6359 15.316 54.1239 15.596 52.3692 15.596H46.4052L48.4212 13.552V21H43.8852ZM48.4212 14.056L46.4052 11.9H52.1172C53.5172 11.9 54.5626 11.6013 55.2532 11.004C55.9439 10.4067 56.2892 9.576 56.2892 8.512C56.2892 7.42933 55.9439 6.58933 55.2532 5.992C54.5626 5.39467 53.5172 5.096 52.1172 5.096H46.4052L48.4212 2.94V14.056ZM61.9181 19.264L63.3181 16.016C64.1581 16.52 65.0541 16.912 66.0061 17.192C66.9768 17.4533 67.9194 17.6027 68.8341 17.64C69.7674 17.6587 70.6074 17.5653 71.3541 17.36C72.1194 17.1547 72.7261 16.8467 73.1741 16.436C73.6408 16.0253 73.8741 15.5027 73.8741 14.868C73.8741 14.1213 73.5661 13.5707 72.9501 13.216C72.3341 12.8427 71.5128 12.656 70.4861 12.656H65.6981V9.24H70.1501C71.0648 9.24 71.7741 9.05333 72.2781 8.68C72.8008 8.30667 73.0621 7.79333 73.0621 7.14C73.0621 6.58 72.8754 6.132 72.5021 5.796C72.1288 5.44133 71.6154 5.18 70.9621 5.012C70.3274 4.844 69.6088 4.76933 68.8061 4.788C68.0034 4.80667 67.1728 4.93733 66.3141 5.18C65.4554 5.42267 64.6341 5.75867 63.8501 6.188L62.4781 2.688C63.7474 2.03467 65.0821 1.58667 66.4821 1.344C67.9008 1.08267 69.2634 1.01733 70.5701 1.148C71.8954 1.26 73.0901 1.55867 74.1541 2.044C75.2181 2.51067 76.0674 3.12667 76.7021 3.892C77.3368 4.65733 77.6541 5.56267 77.6541 6.608C77.6541 7.54133 77.4114 8.372 76.9261 9.1C76.4408 9.828 75.7594 10.388 74.8821 10.78C74.0234 11.172 73.0341 11.368 71.9141 11.368L72.0261 10.36C73.3328 10.36 74.4621 10.584 75.4141 11.032C76.3848 11.4613 77.1314 12.068 77.6541 12.852C78.1954 13.6173 78.4661 14.504 78.4661 15.512C78.4661 16.4453 78.2141 17.2853 77.7101 18.032C77.2248 18.76 76.5528 19.376 75.6941 19.88C74.8354 20.384 73.8554 20.7573 72.7541 21C71.6528 21.2427 70.4768 21.3453 69.2261 21.308C67.9941 21.2707 66.7528 21.0933 65.5021 20.776C64.2514 20.44 63.0568 19.936 61.9181 19.264ZM82.0571 21V1.4H86.5651V14.168L95.9171 1.4H100.173V21H95.6931V8.26L86.3411 21H82.0571ZM118.493 1.4H123.029V21H118.493V1.4ZM109.589 21H105.053V1.4H109.589V21ZM118.829 12.964H109.253V9.128H118.829V12.964ZM125.728 21L134.464 1.4H138.944L147.708 21H142.948L135.78 3.696H137.572L130.376 21H125.728ZM130.096 16.8L131.3 13.356H141.38L142.612 16.8H130.096Z" fill="#1A120B"/>
</svg>
