<svg width="40" height="40" viewBox="0 0 40 40" fill="none" xmlns="http://www.w3.org/2000/svg">
<rect width="40" height="40" rx="10" fill="#1A120B"/>
<path d="M17 13C16.4477 13 16 13.4477 16 14C16 14.5523 16.4477 15 17 15C17.5523 15 18 14.5523 18 14C18 13.4477 17.5523 13 17 13ZM14.1707 13C14.5825 11.8348 15.6938 11 17 11C18.3062 11 19.4175 11.8348 19.8293 13H27C27.5523 13 28 13.4477 28 14C28 14.5523 27.5523 15 27 15H19.8293C19.4175 16.1652 18.3062 17 17 17C15.6938 17 14.5825 16.1652 14.1707 15H13C12.4477 15 12 14.5523 12 14C12 13.4477 12.4477 13 13 13H14.1707ZM23 19C22.4477 19 22 19.4477 22 20C22 20.5523 22.4477 21 23 21C23.5523 21 24 20.5523 24 20C24 19.4477 23.5523 19 23 19ZM20.1707 19C20.5825 17.8348 21.6938 17 23 17C24.3062 17 25.4175 17.8348 25.8293 19H27C27.5523 19 28 19.4477 28 20C28 20.5523 27.5523 21 27 21H25.8293C25.4175 22.1652 24.3062 23 23 23C21.6938 23 20.5825 22.1652 20.1707 21H13C12.4477 21 12 20.5523 12 20C12 19.4477 12.4477 19 13 19H20.1707ZM17 25C16.4477 25 16 25.4477 16 26C16 26.5523 16.4477 27 17 27C17.5523 27 18 26.5523 18 26C18 25.4477 17.5523 25 17 25ZM14.1707 25C14.5825 23.8348 15.6938 23 17 23C18.3062 23 19.4175 23.8348 19.8293 25H27C27.5523 25 28 25.4477 28 26C28 26.5523 27.5523 27 27 27H19.8293C19.4175 28.1652 18.3062 29 17 29C15.6938 29 14.5825 28.1652 14.1707 27H13C12.4477 27 12 26.5523 12 26C12 25.4477 12.4477 25 13 25H14.1707Z" fill="white"/>
</svg>
