<svg width="21" height="20" viewBox="0 0 21 20" fill="none" xmlns="http://www.w3.org/2000/svg">
<path d="M14.6656 0H5.43479C4.00717 0.00152714 2.63846 0.569324 1.62898 1.5788C0.619495 2.58828 0.051698 3.957 0.0501709 5.38462V14.6154C0.051698 16.043 0.619495 17.4117 1.62898 18.4212C2.63846 19.4307 4.00717 19.9985 5.43479 20H14.6656C16.0932 19.9985 17.4619 19.4307 18.4714 18.4212C19.4808 17.4117 20.0486 16.043 20.0502 14.6154V5.38462C20.0486 3.957 19.4808 2.58828 18.4714 1.5788C17.4619 0.569324 16.0932 0.00152714 14.6656 0ZM10.0502 14.6154C9.13733 14.6154 8.245 14.3447 7.486 13.8376C6.727 13.3304 6.13544 12.6096 5.78611 11.7662C5.43678 10.9229 5.34538 9.99488 5.52347 9.09958C5.70156 8.20429 6.14113 7.3819 6.7866 6.73643C7.43207 6.09096 8.25446 5.65138 9.14975 5.4733C10.0451 5.29521 10.9731 5.38661 11.8164 5.73594C12.6598 6.08527 13.3806 6.67683 13.8877 7.43583C14.3949 8.19483 14.6656 9.08716 14.6656 10C14.6643 11.2237 14.1776 12.3969 13.3123 13.2622C12.4471 14.1274 11.2739 14.6141 10.0502 14.6154ZM15.8194 5.38462C15.5912 5.38462 15.3681 5.31694 15.1784 5.19016C14.9886 5.06337 14.8407 4.88316 14.7534 4.67233C14.6661 4.46149 14.6432 4.22949 14.6877 4.00566C14.7322 3.78184 14.8421 3.57625 15.0035 3.41488C15.1649 3.25351 15.3705 3.14362 15.5943 3.09909C15.8181 3.05457 16.0501 3.07742 16.261 3.16475C16.4718 3.25209 16.652 3.39998 16.7788 3.58973C16.9056 3.77948 16.9732 4.00256 16.9732 4.23077C16.9732 4.53679 16.8517 4.83027 16.6353 5.04666C16.4189 5.26305 16.1254 5.38462 15.8194 5.38462ZM13.1271 10C13.1271 10.6086 12.9466 11.2034 12.6085 11.7094C12.2704 12.2154 11.7899 12.6098 11.2277 12.8427C10.6654 13.0756 10.0468 13.1365 9.44989 13.0178C8.85303 12.8991 8.30477 12.606 7.87446 12.1757C7.44414 11.7454 7.15109 11.1971 7.03237 10.6003C6.91365 10.0034 6.97458 9.38475 7.20746 8.82251C7.44035 8.26028 7.83473 7.77973 8.34072 7.44163C8.84672 7.10354 9.44161 6.92308 10.0502 6.92308C10.8662 6.92308 11.6488 7.24725 12.2259 7.82429C12.8029 8.40132 13.1271 9.18395 13.1271 10Z" fill="white"/>
</svg>
