<svg width="21" height="20" viewBox="0 0 21 20" fill="none" xmlns="http://www.w3.org/2000/svg">
<path d="M10.0502 0C4.53017 0 0.0501709 4.48 0.0501709 10C0.0501709 15.52 4.53017 20 10.0502 20C15.5702 20 20.0502 15.52 20.0502 10C20.0502 4.48 15.5702 0 10.0502 0ZM14.6902 6.8C14.5402 8.38 13.8902 12.22 13.5602 13.99C13.4202 14.74 13.1402 14.99 12.8802 15.02C12.3002 15.07 11.8602 14.64 11.3002 14.27C10.4202 13.69 9.92017 13.33 9.07017 12.77C8.08017 12.12 8.72017 11.76 9.29017 11.18C9.44017 11.03 12.0002 8.7 12.0502 8.49C12.0571 8.45819 12.0562 8.42517 12.0475 8.3938C12.0388 8.36244 12.0225 8.33367 12.0002 8.31C11.9402 8.26 11.8602 8.28 11.7902 8.29C11.7002 8.31 10.3002 9.24 7.57017 11.08C7.17017 11.35 6.81017 11.49 6.49017 11.48C6.13017 11.47 5.45017 11.28 4.94017 11.11C4.31017 10.91 3.82017 10.8 3.86017 10.45C3.88017 10.27 4.13017 10.09 4.60017 9.9C7.52017 8.63 9.46017 7.79 10.4302 7.39C13.2102 6.23 13.7802 6.03 14.1602 6.03C14.2402 6.03 14.4302 6.05 14.5502 6.15C14.6502 6.23 14.6802 6.34 14.6902 6.42C14.6802 6.48 14.7002 6.66 14.6902 6.8Z" fill="white"/>
</svg>
