<svg width="21" height="20" viewBox="0 0 21 20" fill="none" xmlns="http://www.w3.org/2000/svg">
<path d="M10.0502 0C15.5732 0 20.0502 4.477 20.0502 9.99999C20.0502 15.523 15.5732 20 10.0502 20C8.28296 20.0028 6.54684 19.5352 5.02018 18.645L0.054185 20L1.40618 15.032C0.515278 13.5049 0.0472325 11.768 0.0501848 9.99999C0.0501848 4.477 4.52718 0 10.0502 0ZM6.64218 5.3L6.44218 5.308C6.3127 5.31588 6.18616 5.3499 6.07018 5.408C5.9617 5.46943 5.86268 5.54622 5.77618 5.636C5.65618 5.749 5.58818 5.847 5.51518 5.942C5.1453 6.4229 4.94615 7.01331 4.94918 7.62C4.95118 8.10999 5.07918 8.58699 5.27918 9.03299C5.68818 9.93499 6.36118 10.89 7.24918 11.775C7.46318 11.988 7.67318 12.202 7.89918 12.401C9.00257 13.3725 10.3174 14.073 11.7392 14.447L12.3072 14.534C12.4922 14.544 12.6772 14.53 12.8632 14.521C13.1544 14.506 13.4388 14.4271 13.6962 14.29C13.8271 14.2225 13.9549 14.1491 14.0792 14.07C14.0792 14.07 14.1222 14.042 14.2042 13.98C14.3392 13.88 14.4222 13.809 14.5342 13.692C14.6172 13.606 14.6892 13.505 14.7442 13.39C14.8222 13.227 14.9002 12.916 14.9322 12.657C14.9562 12.459 14.9492 12.351 14.9462 12.284C14.9422 12.177 14.8532 12.066 14.7562 12.019L14.1742 11.758C14.1742 11.758 13.3042 11.379 12.7722 11.137C12.7165 11.1127 12.6569 11.0988 12.5962 11.096C12.5278 11.089 12.4586 11.0967 12.3934 11.1186C12.3282 11.1405 12.2685 11.1761 12.2182 11.223C12.2132 11.221 12.1462 11.278 11.4232 12.154C11.3817 12.2098 11.3245 12.2519 11.259 12.275C11.1934 12.2982 11.1225 12.3013 11.0552 12.284C10.99 12.2665 10.9262 12.2445 10.8642 12.218C10.7402 12.166 10.6972 12.146 10.6122 12.11C10.0382 11.8595 9.50687 11.5211 9.03718 11.107C8.91118 10.997 8.79418 10.877 8.67418 10.761C8.28077 10.3842 7.9379 9.958 7.65418 9.49299L7.59518 9.39799C7.5528 9.33416 7.51854 9.2653 7.49318 9.19299C7.45518 9.04599 7.55418 8.92799 7.55418 8.92799C7.55418 8.92799 7.79718 8.66199 7.91018 8.51799C8.02018 8.37799 8.11318 8.24199 8.17318 8.14499C8.29118 7.955 8.32818 7.75999 8.26618 7.609C7.98618 6.925 7.69618 6.244 7.39818 5.568C7.33918 5.434 7.16418 5.338 7.00518 5.319C6.95118 5.313 6.89718 5.307 6.84318 5.303C6.70889 5.29632 6.57432 5.29766 6.44018 5.307L6.64118 5.299L6.64218 5.3Z" fill="white"/>
</svg>
